<?xml version="1.0" standalone="no"?>
<!DOCTYPE svg PUBLIC "-//W3C//DTD SVG 20010904//EN"
 "http://www.w3.org/TR/2001/REC-SVG-20010904/DTD/svg10.dtd">
<svg version="1.0" xmlns="http://www.w3.org/2000/svg"
 width="160.000000pt" height="160.000000pt" viewBox="0 0 160.000000 160.000000"
 preserveAspectRatio="xMidYMid meet">
<metadata>
Created by potrace 1.11, written by Peter Selinger 2001-2013
</metadata>
<g transform="translate(0.000000,160.000000) scale(0.100000,-0.100000)"
fill="#000000" stroke="none">
<path d="M787 1388 c-8 -58 -65 -170 -144 -280 -37 -51 -70 -95 -73 -98 -4 -3
-29 -39 -57 -80 -111 -164 -143 -245 -139 -351 5 -118 45 -207 132 -292 l39
-37 12 56 c17 74 67 167 153 284 131 179 202 290 230 360 44 115 38 227 -18
336 -23 45 -86 120 -112 134 -15 8 -18 4 -23 -32z"/>
<path d="M1096 898 c-29 -83 -67 -143 -263 -413 -28 -38 -64 -97 -81 -130 -32
-61 -60 -160 -49 -171 3 -3 33 -7 66 -9 197 -11 379 121 431 314 29 110 8 243
-69 424 l-16 38 -19 -53z"/>
</g>
</svg>
